HIERARCHY
ROOT Hips
{
	OFFSET -0.001795 -0.223333 0.028219
	CHANNELS 6 Xposition Yposition Zposition Zrotation Yrotation Xrotation 
	JOINT LeftUpLeg
	{
		OFFSET 0.069520 -0.091406 -0.006815
		CHANNELS 3 Zrotation Yrotation Xrotation
		JOINT LeftLeg
		{
			OFFSET 0.034277 -0.375199 -0.004496
			CHANNELS 3 Zrotation Yrotation Xrotation
			JOINT LeftFoot
			{
				OFFSET -0.013596 -0.397961 -0.043693
				CHANNELS 3 Zrotation Yrotation Xrotation
				JOINT LeftToe
				{
					OFFSET 0.026358 -0.055791 0.119288
					CHANNELS 3 Zrotation Yrotation Xrotation
					End Site
					{
						OFFSET 0.000000 0.000000 0.000000
					}
				}
			}
		}
	}
	JOINT RightUpLeg
	{
		OFFSET -0.067670 -0.090522 -0.004320
		CHANNELS 3 Zrotation Yrotation Xrotation
		JOINT RightLeg
		{
			OFFSET -0.038290 -0.382569 -0.008850
			CHANNELS 3 Zrotation Yrotation Xrotation
			JOINT RightFoot
			{
				OFFSET 0.015774 -0.398415 -0.042312
				CHANNELS 3 Zrotation Yrotation Xrotation
				JOINT RightToe
				{
					OFFSET -0.025372 -0.048144 0.123348
					CHANNELS 3 Zrotation Yrotation Xrotation
					End Site
					{
						OFFSET 0.000000 0.000000 0.000000
					}
				}
			}
		}
	}
	JOINT Spine
	{
		OFFSET -0.002533 0.108963 -0.026696
		CHANNELS 3 Zrotation Yrotation Xrotation
		JOINT Spine1
		{
			OFFSET 0.005487 0.135180 0.001092
			CHANNELS 3 Zrotation Yrotation Xrotation
			JOINT Spine2
			{
				OFFSET 0.001457 0.052922 0.025425
				CHANNELS 3 Zrotation Yrotation Xrotation
				JOINT Neck
				{
					OFFSET -0.002778 0.213870 -0.042857
					CHANNELS 3 Zrotation Yrotation Xrotation
					JOINT Head
					{
						OFFSET 0.005152 0.064970 0.051349
						CHANNELS 3 Zrotation Yrotation Xrotation
						End Site
						{
							OFFSET 0.000000 0.000000 0.000000
						}
					}
				}
				JOINT LeftShoulder
				{
					OFFSET 0.078845 0.121749 -0.034090
					CHANNELS 3 Zrotation Yrotation Xrotation
					JOINT LeftArm
					{
						OFFSET 0.090977 0.030469 -0.008868
						CHANNELS 3 Zrotation Yrotation Xrotation
						JOINT LeftForeArm
						{
							OFFSET 0.259612 -0.012772 -0.027456
							CHANNELS 3 Zrotation Yrotation Xrotation
							JOINT LeftHand
							{
								OFFSET 0.249234 0.008986 -0.001171
								CHANNELS 3 Zrotation Yrotation Xrotation
								End Site
								{
									OFFSET 0.000000 0.000000 0.000000
								}
							}
						}
					}
				}
				JOINT RightShoulder
				{
					OFFSET -0.081759 0.118833 -0.038615
					CHANNELS 3 Zrotation Yrotation Xrotation
					JOINT RightArm
					{
						OFFSET -0.096012 0.032551 -0.009143
						CHANNELS 3 Zrotation Yrotation Xrotation
						JOINT RightForeArm
						{
							OFFSET -0.253742 -0.013329 -0.021401
							CHANNELS 3 Zrotation Yrotation Xrotation
							JOINT RightHand
							{
								OFFSET -0.255298 0.007772 -0.005559
								CHANNELS 3 Zrotation Yrotation Xrotation
								End Site
								{
									OFFSET 0.000000 0.000000 0.000000
								}
							}
						}
					}
				}
			}
		}
	}
}
MOTION
Frames: 8
Frame Time: 0.050000
-1.753356 0.917012 0.508302 -157.796577 78.430653 -154.323881 8.374623 -5.671610 -24.084953 -10.285573 -4.205048 14.828114 23.908165 20.749243 18.132843 0.000000 0.000000 0.000000 11.989598 -10.358146 -40.176771 -15.839117 -8.806685 38.278279 4.004548 7.063696 6.785918 0.000000 0.000000 0.000000 -38.135921 -15.227176 55.363461 4.519643 0.946338 -11.148182 15.229002 28.478376 30.785389 -7.879854 4.180539 -0.193021 0.000000 0.000000 0.000000 -34.732693 -32.431819 -17.680290 -40.602817 -2.013652 5.056019 22.899103 -43.959594 -12.969728 0.000000 0.000000 0.000000 33.914862 18.890410 36.508339 30.696857 33.797452 -1.658019 -28.977327 42.151426 -11.323612 0.000000 0.000000 0.000000 
-1.777155 0.913813 0.518110 -154.543130 78.998404 -150.620222 10.103675 -6.571485 -26.096499 -10.768946 -4.074299 14.225716 24.062164 22.066746 20.302462 0.000000 0.000000 0.000000 11.197931 -9.884822 -39.119806 -22.189393 -10.291781 46.184045 4.188749 7.668450 6.972372 0.000000 0.000000 0.000000 -38.263511 -15.026286 55.500769 4.041915 1.105105 -11.285370 15.495559 28.874939 30.383682 -8.061240 4.147897 0.210116 0.000000 0.000000 0.000000 -34.026536 -32.230899 -17.069027 -42.034778 -2.034921 4.840679 24.080504 -45.700442 -14.448081 0.000000 0.000000 0.000000 33.651288 18.967843 36.061963 31.243718 34.044372 -1.402056 -30.103775 42.920486 -11.837792 0.000000 0.000000 0.000000 
-1.801297 0.908946 0.528913 -154.358908 79.534098 -149.881131 11.153251 -7.424014 -28.073894 -10.795966 -3.880617 13.379136 24.023310 23.004069 22.154138 0.000000 0.000000 0.000000 10.104915 -9.490560 -37.818941 -29.598809 -10.686760 53.200819 6.393308 10.847082 11.223315 0.000000 0.000000 0.000000 -39.419412 -14.853217 55.753300 3.527330 1.302085 -12.136591 16.568051 29.369731 30.922691 -7.595738 4.881365 -1.512077 0.000000 0.000000 0.000000 -33.146071 -32.362223 -16.811624 -44.109336 -1.969086 4.756924 26.799993 -46.536576 -16.701543 0.000000 0.000000 0.000000 33.020710 19.419125 35.965457 32.351369 34.811557 -0.927986 -32.963920 43.215979 -12.844038 0.000000 0.000000 0.000000 
-1.826455 0.902957 0.541413 -155.800823 80.323544 -150.689897 11.791637 -8.491838 -30.537937 -10.219051 -3.638920 13.207969 23.830328 24.096662 24.231180 0.000000 0.000000 0.000000 8.712168 -8.594129 -35.377321 -34.432445 -10.448830 55.875792 11.177800 16.884701 12.520245 0.000000 0.000000 0.000000 -40.023405 -14.726860 56.436721 2.978862 1.579337 -13.117348 16.683255 29.823725 30.087100 -7.231350 4.524977 -1.065393 0.000000 0.000000 0.000000 -32.642806 -31.488270 -16.585535 -46.103024 -1.061597 4.003297 26.355532 -48.937428 -17.708765 0.000000 0.000000 0.000000 33.196966 19.462893 35.816422 32.669959 35.813191 -0.623417 -35.257692 43.610579 -13.826387 0.000000 0.000000 0.000000 
-1.852328 0.895843 0.556191 -160.488111 80.661911 -154.797576 12.187055 -9.127057 -31.882357 -9.497960 -3.213106 10.996190 23.147199 24.064303 25.734234 0.000000 0.000000 0.000000 7.549567 -7.995800 -33.415252 -32.080984 -11.127199 53.710339 12.066694 18.487555 8.777148 0.000000 0.000000 0.000000 -40.275392 -14.773653 56.868172 2.259928 1.817992 -14.159611 17.601666 30.480260 30.233150 -6.405902 4.106034 -1.177349 0.000000 0.000000 0.000000 -32.805524 -31.603049 -16.944699 -47.429341 0.673641 3.369977 25.756980 -51.823027 -18.689351 0.000000 0.000000 0.000000 32.289234 18.593912 34.839510 33.859704 37.067662 0.083118 -38.294173 45.796774 -15.424801 0.000000 0.000000 0.000000 
-1.878520 0.890518 0.573072 -163.290120 81.048068 -158.490178 12.113534 -9.394049 -32.419342 -8.036006 -2.839090 10.512760 21.773153 23.534060 27.244622 0.000000 0.000000 0.000000 7.721808 -6.537033 -30.911367 -28.217760 -11.504741 49.395786 9.910129 15.722137 3.252840 0.000000 0.000000 0.000000 -42.114800 -14.831324 58.447183 1.541327 1.988914 -14.214874 17.828170 32.418752 29.634116 -5.027733 3.345749 -1.470290 0.000000 0.000000 0.000000 -32.250990 -30.580921 -17.030286 -50.337366 1.456744 2.567821 27.490846 -54.816719 -21.667439 0.000000 0.000000 0.000000 33.397322 18.926966 35.688593 33.645159 38.555630 0.236745 -41.515394 46.779794 -17.379317 0.000000 0.000000 0.000000 
-1.904536 0.887366 0.592047 -165.799728 81.275229 -162.049667 12.331903 -9.171276 -31.952196 -6.953538 -2.436506 8.590234 19.870909 22.475927 29.119048 0.000000 0.000000 0.000000 6.939181 -5.525212 -28.360919 -21.979202 -12.061919 44.511822 8.080405 11.713698 -3.146245 0.000000 0.000000 0.000000 -43.847588 -14.684730 59.358618 1.315166 2.048829 -14.520106 19.614549 34.245226 31.305812 -5.114313 3.246682 -0.988318 0.000000 0.000000 0.000000 -32.456256 -30.233507 -17.750742 -52.308394 3.950007 1.392253 24.037954 -58.693100 -21.396881 0.000000 0.000000 0.000000 32.984680 19.279220 35.699715 32.302481 39.816327 0.519170 -43.799101 48.581830 -19.379531 0.000000 0.000000 0.000000 
-1.930432 0.887151 0.612662 -163.697952 81.516048 -160.673507 13.462159 -8.838143 -31.117104 -5.740473 -2.012536 5.521278 17.783217 21.277312 31.894377 0.000000 0.000000 0.000000 7.539501 -4.676456 -27.231630 -17.637077 -11.989597 40.820373 7.208147 9.043446 -6.039438 0.000000 0.000000 0.000000 -43.956016 -14.610876 59.279765 0.724531 2.179327 -13.898477 20.128303 35.576844 31.083702 -5.170717 2.928965 -0.719619 0.000000 0.000000 0.000000 -33.272344 -30.146995 -18.460310 -53.893922 5.521766 0.783565 23.217110 -60.288367 -21.752036 0.000000 0.000000 0.000000 33.893635 19.968459 36.973720 30.054190 40.843222 0.135750 -44.862094 47.839976 -20.102441 0.000000 0.000000 0.000000 
